<mxfile host="app.diagrams.net" modified="2023-12-20T01:04:57.922Z" agent="Mozilla/5.0 (Windows NT 10.0; Win64; x64) AppleWebKit/537.36 (KHTML, like Gecko) Chrome/120.0.0.0 Safari/537.36" etag="UsXyOsdj9-IsHaPaRCHE" version="22.1.11" type="device">
  <diagram id="C5RBs43oDa-KdzZeNtuy" name="Page-1">
    <mxGraphModel dx="1434" dy="1953" grid="1" gridSize="10" guides="1" tooltips="1" connect="1" arrows="1" fold="1" page="1" pageScale="1" pageWidth="827" pageHeight="1169" math="0" shadow="0">
      <root>
        <mxCell id="WIyWlLk6GJQsqaUBKTNV-0" />
        <mxCell id="WIyWlLk6GJQsqaUBKTNV-1" parent="WIyWlLk6GJQsqaUBKTNV-0" />
        <mxCell id="o1KFUSoeTvBDRn-8kvO2-1" value="" style="edgeStyle=orthogonalEdgeStyle;rounded=0;orthogonalLoop=1;jettySize=auto;html=1;" parent="WIyWlLk6GJQsqaUBKTNV-1" source="S7_N-UKr1pL8a_zZHFVc-5" target="o1KFUSoeTvBDRn-8kvO2-0" edge="1">
          <mxGeometry relative="1" as="geometry" />
        </mxCell>
        <mxCell id="S7_N-UKr1pL8a_zZHFVc-5" value="Начало" style="strokeWidth=2;html=1;shape=mxgraph.flowchart.terminator;whiteSpace=wrap;" parent="WIyWlLk6GJQsqaUBKTNV-1" vertex="1">
          <mxGeometry x="360" y="-70" width="100" height="60" as="geometry" />
        </mxCell>
        <mxCell id="S7_N-UKr1pL8a_zZHFVc-6" value="Конец" style="strokeWidth=2;html=1;shape=mxgraph.flowchart.terminator;whiteSpace=wrap;" parent="WIyWlLk6GJQsqaUBKTNV-1" vertex="1">
          <mxGeometry x="360" y="570" width="100" height="60" as="geometry" />
        </mxCell>
        <mxCell id="tAWyhYt2iqQ36pVHwljJ-29" value="" style="edgeStyle=orthogonalEdgeStyle;rounded=0;orthogonalLoop=1;jettySize=auto;html=1;fontFamily=Helvetica;fontSize=12;fontColor=default;" parent="WIyWlLk6GJQsqaUBKTNV-1" source="tAWyhYt2iqQ36pVHwljJ-28" target="S7_N-UKr1pL8a_zZHFVc-6" edge="1">
          <mxGeometry relative="1" as="geometry" />
        </mxCell>
        <mxCell id="tAWyhYt2iqQ36pVHwljJ-28" value="&lt;div&gt;Вывести&amp;nbsp;res&lt;/div&gt;" style="shape=parallelogram;html=1;strokeWidth=2;perimeter=parallelogramPerimeter;whiteSpace=wrap;rounded=1;arcSize=12;size=0.23;" parent="WIyWlLk6GJQsqaUBKTNV-1" vertex="1">
          <mxGeometry x="310" y="490" width="200" height="60" as="geometry" />
        </mxCell>
        <mxCell id="o1KFUSoeTvBDRn-8kvO2-2" value="" style="edgeStyle=orthogonalEdgeStyle;rounded=0;orthogonalLoop=1;jettySize=auto;html=1;entryX=0.5;entryY=0;entryDx=0;entryDy=0;" parent="WIyWlLk6GJQsqaUBKTNV-1" source="o1KFUSoeTvBDRn-8kvO2-0" target="o1KFUSoeTvBDRn-8kvO2-9" edge="1">
          <mxGeometry relative="1" as="geometry">
            <mxPoint x="410" y="130" as="targetPoint" />
          </mxGeometry>
        </mxCell>
        <mxCell id="o1KFUSoeTvBDRn-8kvO2-0" value="&lt;div&gt;max_num = 0&lt;/div&gt;&lt;div&gt;max_num_i = 0&lt;span style=&quot;&quot;&gt;&lt;/span&gt;&lt;/div&gt;" style="rounded=1;whiteSpace=wrap;html=1;absoluteArcSize=1;arcSize=14;strokeWidth=2;strokeColor=default;align=center;verticalAlign=middle;fillColor=default;" parent="WIyWlLk6GJQsqaUBKTNV-1" vertex="1">
          <mxGeometry x="310" y="20" width="200" height="60" as="geometry" />
        </mxCell>
        <mxCell id="o1KFUSoeTvBDRn-8kvO2-11" value="" style="edgeStyle=orthogonalEdgeStyle;rounded=0;orthogonalLoop=1;jettySize=auto;html=1;" parent="WIyWlLk6GJQsqaUBKTNV-1" source="o1KFUSoeTvBDRn-8kvO2-9" target="o1KFUSoeTvBDRn-8kvO2-10" edge="1">
          <mxGeometry relative="1" as="geometry" />
        </mxCell>
        <mxCell id="o1KFUSoeTvBDRn-8kvO2-21" style="edgeStyle=orthogonalEdgeStyle;rounded=0;orthogonalLoop=1;jettySize=auto;html=1;entryX=0.5;entryY=0;entryDx=0;entryDy=0;" parent="WIyWlLk6GJQsqaUBKTNV-1" source="o1KFUSoeTvBDRn-8kvO2-9" target="witjMb-7Z4UjtDUjW97j-2" edge="1">
          <mxGeometry relative="1" as="geometry">
            <mxPoint x="580" y="390" as="targetPoint" />
            <Array as="points">
              <mxPoint x="560" y="140" />
              <mxPoint x="560" y="390" />
              <mxPoint x="410" y="390" />
            </Array>
          </mxGeometry>
        </mxCell>
        <mxCell id="o1KFUSoeTvBDRn-8kvO2-9" value="for i, num in enumerate(arr)" style="shape=hexagon;perimeter=hexagonPerimeter2;whiteSpace=wrap;html=1;fixedSize=1;rounded=0;arcSize=14;strokeWidth=2;" parent="WIyWlLk6GJQsqaUBKTNV-1" vertex="1">
          <mxGeometry x="300" y="110" width="220" height="60" as="geometry" />
        </mxCell>
        <mxCell id="o1KFUSoeTvBDRn-8kvO2-19" style="edgeStyle=orthogonalEdgeStyle;rounded=0;orthogonalLoop=1;jettySize=auto;html=1;strokeColor=default;" parent="WIyWlLk6GJQsqaUBKTNV-1" source="o1KFUSoeTvBDRn-8kvO2-10" edge="1">
          <mxGeometry relative="1" as="geometry">
            <mxPoint x="240" y="230" as="targetPoint" />
          </mxGeometry>
        </mxCell>
        <mxCell id="o1KFUSoeTvBDRn-8kvO2-20" value="Нет" style="edgeLabel;html=1;align=center;verticalAlign=middle;resizable=0;points=[];" parent="o1KFUSoeTvBDRn-8kvO2-19" vertex="1" connectable="0">
          <mxGeometry x="-0.296" y="-3" relative="1" as="geometry">
            <mxPoint x="-5" y="-7" as="offset" />
          </mxGeometry>
        </mxCell>
        <mxCell id="o1KFUSoeTvBDRn-8kvO2-10" value="|num| &amp;gt; |max_num|" style="strokeWidth=2;html=1;shape=mxgraph.flowchart.decision;whiteSpace=wrap;" parent="WIyWlLk6GJQsqaUBKTNV-1" vertex="1">
          <mxGeometry x="310" y="200" width="200" height="60" as="geometry" />
        </mxCell>
        <mxCell id="o1KFUSoeTvBDRn-8kvO2-12" value="&lt;div&gt;max_num = num&lt;/div&gt;&lt;div&gt;max_num_i = i&lt;span style=&quot;&quot;&gt;&lt;/span&gt;&lt;/div&gt;" style="rounded=1;whiteSpace=wrap;html=1;absoluteArcSize=1;arcSize=14;strokeWidth=2;strokeColor=default;align=center;verticalAlign=middle;fillColor=default;" parent="WIyWlLk6GJQsqaUBKTNV-1" vertex="1">
          <mxGeometry x="310" y="290" width="200" height="60" as="geometry" />
        </mxCell>
        <mxCell id="o1KFUSoeTvBDRn-8kvO2-14" style="edgeStyle=orthogonalEdgeStyle;rounded=0;orthogonalLoop=1;jettySize=auto;html=1;fontFamily=Helvetica;fontSize=12;fontColor=default;entryX=0;entryY=0.5;entryDx=0;entryDy=0;" parent="WIyWlLk6GJQsqaUBKTNV-1" target="o1KFUSoeTvBDRn-8kvO2-9" edge="1">
          <mxGeometry relative="1" as="geometry">
            <mxPoint x="410" y="184" as="targetPoint" />
            <Array as="points">
              <mxPoint x="410" y="370" />
              <mxPoint x="240" y="370" />
              <mxPoint x="240" y="140" />
            </Array>
            <mxPoint x="410" y="350" as="sourcePoint" />
          </mxGeometry>
        </mxCell>
        <mxCell id="o1KFUSoeTvBDRn-8kvO2-17" value="Да" style="edgeStyle=orthogonalEdgeStyle;rounded=0;orthogonalLoop=1;jettySize=auto;html=1;fontFamily=Helvetica;fontSize=12;fontColor=default;entryX=0.5;entryY=0;entryDx=0;entryDy=0;" parent="WIyWlLk6GJQsqaUBKTNV-1" target="o1KFUSoeTvBDRn-8kvO2-12" edge="1">
          <mxGeometry x="-0.3194" y="20" relative="1" as="geometry">
            <mxPoint as="offset" />
            <mxPoint x="409.69" y="260" as="sourcePoint" />
            <mxPoint x="409.69" y="280" as="targetPoint" />
          </mxGeometry>
        </mxCell>
        <mxCell id="witjMb-7Z4UjtDUjW97j-3" value="" style="edgeStyle=orthogonalEdgeStyle;rounded=0;orthogonalLoop=1;jettySize=auto;html=1;" edge="1" parent="WIyWlLk6GJQsqaUBKTNV-1" source="witjMb-7Z4UjtDUjW97j-2" target="tAWyhYt2iqQ36pVHwljJ-28">
          <mxGeometry relative="1" as="geometry" />
        </mxCell>
        <mxCell id="witjMb-7Z4UjtDUjW97j-2" value="res = f&quot;Максимальное по абсолютной величине число: {max_num}, индекс: {max_num_i}.&quot;" style="rounded=1;whiteSpace=wrap;html=1;absoluteArcSize=1;arcSize=14;strokeWidth=2;strokeColor=default;align=center;verticalAlign=middle;fillColor=default;" vertex="1" parent="WIyWlLk6GJQsqaUBKTNV-1">
          <mxGeometry x="310" y="410" width="200" height="60" as="geometry" />
        </mxCell>
      </root>
    </mxGraphModel>
  </diagram>
</mxfile>
